<?xml version="1.0" standalone="no"?>
<!DOCTYPE svg PUBLIC "-//W3C//DTD SVG 20010904//EN"
 "http://www.w3.org/TR/2001/REC-SVG-20010904/DTD/svg10.dtd">
<svg version="1.0" xmlns="http://www.w3.org/2000/svg"
 width="216.000000pt" height="216.000000pt" viewBox="0 0 216.000000 216.000000"
 preserveAspectRatio="xMidYMid meet">
<metadata>
Created by potrace 1.14, written by Peter Selinger 2001-2017
</metadata>
<g transform="translate(0.000000,216.000000) scale(0.100000,-0.100000)"
fill="#000000" stroke="none">
<path d="M1060 1978 c-8 -13 -19 -32 -26 -43 -31 -57 -252 -439 -286 -494 -21
-34 -38 -65 -38 -67 0 -2 -20 -38 -45 -80 -25 -41 -45 -80 -45 -85 0 -5 -4 -9
-10 -9 -5 0 -10 -4 -10 -9 0 -5 -23 -49 -51 -98 -66 -113 -237 -409 -259 -448
-10 -16 -43 -75 -75 -130 -32 -55 -66 -113 -75 -130 -10 -16 -43 -74 -75 -128
-32 -54 -55 -100 -53 -102 3 -3 485 -4 1071 -3 l1067 3 -168 290 c-93 160
-246 425 -341 590 -95 165 -190 329 -211 365 -164 281 -328 568 -333 583 -9
23 -19 22 -37 -5z"/>
</g>
</svg>
