<svg width="298" height="38" viewBox="0 0 298 38" fill="none" xmlns="http://www.w3.org/2000/svg">
<path d="M1.2041 28V2.476H3.72411V17.308L17.8001 2.44H20.5721L10.1321 13.672L21.1121 28H18.2681L8.51211 15.184L3.72411 20.152V28H1.2041Z" fill="#181C81"/>
<path d="M80.4074 4.67202H71.2994V28H68.7794V4.67202H59.6714V2.44H80.4074V4.67202Z" fill="#181C81"/>
<path d="M84.7759 28V2.44H95.5759C96.6799 2.44 97.6879 2.668 98.5999 3.124C99.5359 3.58 100.34 4.204 101.012 4.996C101.684 5.764 102.2 6.628 102.56 7.588C102.944 8.52402 103.136 9.48402 103.136 10.468C103.136 11.716 102.896 12.88 102.416 13.96C101.96 15.04 101.3 15.952 100.436 16.696C99.5719 17.44 98.5759 17.92 97.4479 18.136L103.712 28H100.868L94.8559 18.568H87.2959V28H84.7759ZM87.2959 16.336H95.6479C96.6559 16.336 97.5319 16.06 98.2759 15.508C99.0199 14.932 99.5959 14.2 100.004 13.312C100.412 12.424 100.616 11.476 100.616 10.468C100.616 9.436 100.376 8.488 99.8959 7.624C99.4399 6.736 98.8159 6.028 98.0239 5.50002C97.2319 4.94802 96.3679 4.67202 95.4319 4.67202H87.2959V16.336Z" fill="#181C81"/>
<path d="M119.24 28.18C117.224 28.18 115.52 27.82 114.128 27.1C112.76 26.38 111.656 25.408 110.816 24.184C109.976 22.96 109.376 21.592 109.016 20.08C108.656 18.544 108.476 16.96 108.476 15.328V2.44H110.96V15.328C110.96 16.672 111.092 17.98 111.356 19.252C111.644 20.5 112.1 21.628 112.724 22.636C113.348 23.644 114.188 24.448 115.244 25.048C116.3 25.624 117.62 25.912 119.204 25.912C120.836 25.912 122.18 25.612 123.236 25.012C124.316 24.412 125.168 23.608 125.792 22.6C126.416 21.568 126.848 20.428 127.088 19.18C127.352 17.908 127.484 16.624 127.484 15.328V2.44H130.004V15.328C130.004 17.032 129.812 18.664 129.428 20.224C129.044 21.76 128.42 23.128 127.556 24.328C126.716 25.528 125.612 26.476 124.244 27.172C122.876 27.844 121.208 28.18 119.24 28.18Z" fill="#181C81"/>
<path d="M136.551 28V2.476H139.071V17.308L153.147 2.44H155.919L145.479 13.672L156.459 28H153.615L143.859 15.184L139.071 20.152V28H136.551Z" fill="#181C81"/>
<path d="M169.518 28V2.44H178.194C180.906 2.44 183.162 3.016 184.962 4.168C186.786 5.29602 188.154 6.83202 189.066 8.776C189.978 10.696 190.434 12.832 190.434 15.184C190.434 17.776 189.93 20.032 188.922 21.952C187.914 23.872 186.498 25.36 184.674 26.416C182.85 27.472 180.69 28 178.194 28H169.518ZM187.914 15.184C187.914 13.144 187.53 11.332 186.762 9.748C186.018 8.16402 184.914 6.92802 183.45 6.04002C182.01 5.12802 180.258 4.67202 178.194 4.67202H172.038V25.768H178.194C180.306 25.768 182.082 25.3 183.522 24.364C184.962 23.428 186.054 22.168 186.798 20.584C187.542 19 187.914 17.2 187.914 15.184Z" fill="#181C81"/>
<path d="M212.964 25.768V28H195.792V2.44H212.64V4.67202H198.312V13.888H210.804V16.012H198.312V25.768H212.964Z" fill="#181C81"/>
<path d="M233.07 7.22803C232.35 6.43603 231.39 5.78803 230.19 5.28401C228.99 4.75601 227.622 4.49201 226.086 4.49201C223.83 4.49201 222.186 4.92401 221.154 5.78801C220.122 6.62801 219.606 7.78003 219.606 9.24401C219.606 10.252 219.858 11.044 220.362 11.62C220.866 12.196 221.634 12.676 222.666 13.06C223.722 13.42 225.066 13.78 226.698 14.14C228.522 14.524 230.094 14.98 231.414 15.508C232.734 16.036 233.754 16.756 234.474 17.668C235.194 18.556 235.554 19.768 235.554 21.304C235.554 22.864 235.158 24.16 234.366 25.192C233.574 26.224 232.482 26.992 231.09 27.496C229.698 27.976 228.114 28.216 226.338 28.216C222.354 28.216 218.934 26.98 216.078 24.508L217.338 22.456C218.25 23.416 219.498 24.244 221.082 24.94C222.69 25.636 224.466 25.984 226.41 25.984C228.426 25.984 230.01 25.612 231.162 24.868C232.314 24.124 232.89 23.02 232.89 21.556C232.89 20.5 232.602 19.66 232.026 19.036C231.45 18.388 230.586 17.86 229.434 17.452C228.282 17.044 226.866 16.648 225.186 16.264C223.41 15.856 221.91 15.4 220.686 14.896C219.486 14.392 218.574 13.732 217.95 12.916C217.326 12.1 217.014 10.996 217.014 9.60401C217.014 8.02001 217.398 6.68803 218.166 5.60801C218.958 4.50401 220.038 3.67601 221.406 3.12401C222.774 2.54801 224.346 2.26001 226.122 2.26001C227.802 2.26001 229.314 2.52401 230.658 3.05203C232.002 3.55601 233.214 4.27601 234.294 5.21203L233.07 7.22803Z" fill="#181C81"/>
<path d="M240.536 28V2.44H243.056V28H240.536Z" fill="#181C81"/>
<path d="M260.266 28.18C258.538 28.18 256.942 27.82 255.478 27.1C254.038 26.356 252.778 25.36 251.698 24.112C250.618 22.864 249.778 21.472 249.178 19.936C248.602 18.376 248.314 16.792 248.314 15.184C248.314 13.48 248.602 11.86 249.178 10.324C249.778 8.76401 250.606 7.38401 251.662 6.18403C252.718 4.96003 253.966 4.00003 255.406 3.30401C256.846 2.60801 258.418 2.26001 260.122 2.26001C262.642 2.26001 264.694 2.77601 266.278 3.80801C267.862 4.84003 269.062 6.18403 269.878 7.84003L267.934 9.13601C267.118 7.55201 266.026 6.38801 264.658 5.64401C263.29 4.90003 261.766 4.52803 260.086 4.52803C258.67 4.52803 257.386 4.82803 256.234 5.42801C255.106 6.02801 254.134 6.83201 253.318 7.84003C252.526 8.84803 251.914 9.98803 251.482 11.26C251.05 12.532 250.834 13.852 250.834 15.22C250.834 16.66 251.074 18.028 251.554 19.324C252.034 20.596 252.706 21.736 253.57 22.744C254.458 23.728 255.478 24.508 256.63 25.084C257.806 25.636 259.078 25.912 260.446 25.912C261.91 25.912 263.302 25.564 264.622 24.868C265.966 24.172 267.25 23.092 268.474 21.628V17.38H262.786V15.436H270.598V28H268.474V24.256C266.122 26.872 263.386 28.18 260.266 28.18Z" fill="#181C81"/>
<path d="M278.836 7.08402V28H276.316V2.44H278.404L295.18 23.752V2.476H297.7V28H295.36L278.836 7.08402Z" fill="#181C81"/>
<path d="M43.0001 0L59.4545 28.5H26.5457L43.0001 0Z" fill="#504CFF"/>
</svg>
