<svg width="374" height="48" viewBox="0 0 374 48" fill="none" xmlns="http://www.w3.org/2000/svg">
<path d="M1.51123 35.3688V3.12799H4.67393V21.8632L22.3398 3.08252H25.8187L12.7162 17.2703L26.4964 35.3688H22.9271L10.683 19.1802L4.67393 25.4556V35.3688H1.51123Z" fill="#181C81"/>
<path d="M100.914 5.90191H89.4837V35.3688H86.321V5.90191H74.8901V3.08252H100.914V5.90191Z" fill="#181C81"/>
<path d="M106.397 35.3688V3.08252H119.951C121.337 3.08252 122.602 3.37052 123.747 3.94652C124.921 4.52252 125.93 5.31073 126.774 6.31115C127.617 7.28126 128.265 8.37262 128.716 9.58526C129.198 10.7676 129.439 11.9802 129.439 13.2231C129.439 14.7996 129.138 16.2699 128.536 17.6341C127.963 18.9983 127.135 20.1503 126.051 21.0901C124.966 22.0299 123.716 22.6362 122.301 22.9091L130.162 35.3688H126.593L119.048 23.4548H109.56V35.3688H106.397ZM109.56 20.6354H120.042C121.307 20.6354 122.406 20.2868 123.34 19.5895C124.274 18.8619 124.997 17.9373 125.509 16.8156C126.021 15.6939 126.277 14.4964 126.277 13.2231C126.277 11.9196 125.976 10.7221 125.373 9.63073C124.801 8.50905 124.018 7.61473 123.024 6.94781C122.03 6.25054 120.945 5.90191 119.771 5.90191H109.56V20.6354Z" fill="#181C81"/>
<path d="M149.65 35.5962C147.12 35.5962 144.981 35.1415 143.234 34.232C141.517 33.3225 140.132 32.0947 139.077 30.5486C138.023 29.0025 137.27 27.2745 136.818 25.3646C136.367 23.4244 136.141 21.4236 136.141 19.3621V3.08252H139.258V19.3621C139.258 21.0598 139.424 22.712 139.755 24.3188C140.117 25.8951 140.689 27.32 141.472 28.5933C142.255 29.8665 143.309 30.8821 144.635 31.64C145.96 32.3676 147.617 32.7314 149.605 32.7314C151.653 32.7314 153.34 32.3524 154.665 31.5945C156.02 30.8366 157.09 29.821 157.873 28.5478C158.656 27.2442 159.198 25.8042 159.499 24.2278C159.831 22.6211 159.996 20.9992 159.996 19.3621V3.08252H163.159V19.3621C163.159 21.5145 162.918 23.576 162.436 25.5465C161.954 27.4867 161.171 29.2147 160.087 30.7305C159.032 32.2463 157.647 33.4438 155.93 34.3229C154.213 35.1718 152.12 35.5962 149.65 35.5962Z" fill="#181C81"/>
<path d="M171.376 35.3688V3.12799H174.539V21.8632L192.205 3.08252H195.684L182.581 17.2703L196.362 35.3688H192.792L180.548 19.1802L174.539 25.4556V35.3688H171.376Z" fill="#181C81"/>
<path d="M212.75 35.3688V3.08252H223.639C227.043 3.08252 229.874 3.8101 232.133 5.26526C234.422 6.69012 236.139 8.63033 237.284 11.0859C238.428 13.5111 239.001 16.2093 239.001 19.1802C239.001 22.4543 238.368 25.304 237.103 27.7293C235.838 30.1545 234.061 32.0341 231.772 33.368C229.483 34.7019 226.772 35.3688 223.639 35.3688H212.75ZM235.838 19.1802C235.838 16.6034 235.356 14.3145 234.392 12.3137C233.459 10.3129 232.073 8.7516 230.236 7.62991C228.428 6.47791 226.23 5.90191 223.639 5.90191H215.913V32.5495H223.639C226.29 32.5495 228.519 31.9583 230.326 30.776C232.133 29.5937 233.504 28.0021 234.437 26.0013C235.371 24.0004 235.838 21.7268 235.838 19.1802Z" fill="#181C81"/>
<path d="M267.277 32.5495V35.3688H245.726V3.08252H266.87V5.90191H248.888V17.5432H264.566V20.2261H248.888V32.5495H267.277Z" fill="#181C81"/>
<path d="M292.511 9.12989C291.607 8.12947 290.402 7.31094 288.896 6.67428C287.39 6.00733 285.673 5.67386 283.745 5.67386C280.914 5.67386 278.851 6.21954 277.556 7.31091C276.26 8.37197 275.613 9.82715 275.613 11.6764C275.613 12.9496 275.929 13.9501 276.562 14.6777C277.194 15.4053 278.158 16.0116 279.453 16.4966C280.779 16.9514 282.465 17.4061 284.513 17.8608C286.803 18.3459 288.776 18.9219 290.432 19.5888C292.089 20.2558 293.369 21.1653 294.273 22.3173C295.176 23.4389 295.628 24.9699 295.628 26.9101C295.628 28.8806 295.131 30.5176 294.137 31.8212C293.143 33.1248 291.773 34.0949 290.026 34.7315C288.279 35.3379 286.291 35.641 284.062 35.641C279.062 35.641 274.769 34.0798 271.185 30.9572L272.766 28.3652C273.911 29.5779 275.477 30.6238 277.465 31.5029C279.483 32.3821 281.712 32.8216 284.152 32.8216C286.682 32.8216 288.67 32.3518 290.116 31.412C291.562 30.4722 292.285 29.0776 292.285 27.2284C292.285 25.8945 291.923 24.8335 291.2 24.0453C290.477 23.2267 289.393 22.5598 287.947 22.0444C286.501 21.529 284.724 21.0288 282.616 20.5438C280.387 20.0284 278.504 19.4524 276.968 18.8158C275.462 18.1791 274.318 17.3454 273.534 16.3147C272.751 15.284 272.36 13.8894 272.36 12.1311C272.36 10.1303 272.842 8.44778 273.806 7.08354C274.8 5.68902 276.155 4.64312 277.872 3.94586C279.589 3.21828 281.562 2.85449 283.791 2.85449C285.899 2.85449 287.797 3.18797 289.483 3.85494C291.17 4.49154 292.691 5.40102 294.047 6.58336L292.511 9.12989Z" fill="#181C81"/>
<path d="M301.881 35.3688V3.08252H305.044V35.3688H301.881Z" fill="#181C81"/>
<path d="M326.643 35.5955C324.474 35.5955 322.471 35.1408 320.634 34.2313C318.826 33.2915 317.245 32.0334 315.89 30.457C314.534 28.8806 313.48 27.1223 312.727 25.1821C312.004 23.2116 311.643 21.2107 311.643 19.1796C311.643 17.0271 312.004 14.9808 312.727 13.0406C313.48 11.0701 314.519 9.32691 315.844 7.81115C317.17 6.26504 318.736 5.05241 320.543 4.17323C322.351 3.29407 324.323 2.85449 326.462 2.85449C329.625 2.85449 332.2 3.50628 334.188 4.80986C336.176 6.11347 337.682 7.81115 338.706 9.90294L336.266 11.54C335.242 9.53912 333.872 8.06881 332.155 7.12902C330.438 6.18925 328.525 5.71936 326.417 5.71936C324.64 5.71936 323.028 6.09831 321.582 6.85618C320.167 7.61407 318.947 8.62965 317.923 9.90294C316.929 11.1762 316.161 12.6162 315.619 14.2229C315.076 15.8297 314.805 17.497 314.805 19.225C314.805 21.044 315.106 22.772 315.709 24.409C316.311 26.0158 317.155 27.4558 318.239 28.729C319.354 29.972 320.634 30.9572 322.079 31.6848C323.555 32.3821 325.152 32.7307 326.869 32.7307C328.706 32.7307 330.453 32.2911 332.11 31.412C333.796 30.5328 335.408 29.1686 336.944 27.3193V21.9535H329.805V19.4979H339.61V35.3682H336.944V30.6389C333.992 33.9433 330.558 35.5955 326.643 35.5955Z" fill="#181C81"/>
<path d="M349.949 8.94865V35.3688H346.786V3.08252H349.407L370.461 30.0029V3.12799H373.624V35.3688H370.687L349.949 8.94865Z" fill="#181C81"/>
<path d="M53.9667 0L74.6176 36H33.3159L53.9667 0Z" fill="#504CFF"/>
</svg>
